<svg width="22" height="21" viewBox="0 0 22 21" fill="none" xmlns="http://www.w3.org/2000/svg">
<path d="M10.0853 1.21364C10.3851 0.293368 11.687 0.293369 11.9869 1.21365L13.738 6.58804C13.8721 6.99967 14.2559 7.27825 14.6888 7.27825H20.3495C21.3189 7.27825 21.7213 8.51928 20.9363 9.08804L16.3614 12.4027C16.0099 12.6573 15.8628 13.1096 15.9973 13.5223L17.7459 18.8889C18.0459 19.8097 16.9926 20.5767 16.2083 20.0085L11.6228 16.6861C11.2728 16.4325 10.7994 16.4325 10.4494 16.6861L5.86381 20.0085C5.07955 20.5767 4.02626 19.8097 4.32629 18.8889L6.07486 13.5223C6.20931 13.1096 6.06223 12.6573 5.71077 12.4027L1.1359 9.08804C0.350892 8.51928 0.753223 7.27825 1.72262 7.27825H7.38337C7.8163 7.27825 8.20006 6.99967 8.33418 6.58804L10.0853 1.21364Z" fill="#070707"/>
</svg>
